<mxfile host="app.diagrams.net" agent="Mozilla/5.0 (Windows NT 10.0; Win64; x64) AppleWebKit/537.36 (KHTML, like Gecko) Chrome/129.0.0.0 Safari/537.36" version="24.7.17">
  <diagram name="Halaman-1" id="gg-2mRo1dktqvA8GFGvp">
    <mxGraphModel dx="794" dy="446" grid="1" gridSize="10" guides="1" tooltips="1" connect="1" arrows="1" fold="1" page="1" pageScale="1" pageWidth="827" pageHeight="1169" math="0" shadow="0">
      <root>
        <mxCell id="0" />
        <mxCell id="1" parent="0" />
        <mxCell id="xtwvShjo_e-eyDxikrhk-1" value="Pelanggan" style="rounded=1;whiteSpace=wrap;html=1;" vertex="1" parent="1">
          <mxGeometry x="460" y="150" width="120" height="60" as="geometry" />
        </mxCell>
        <mxCell id="xtwvShjo_e-eyDxikrhk-2" value="Sistem" style="rounded=1;whiteSpace=wrap;html=1;" vertex="1" parent="1">
          <mxGeometry x="260" y="150" width="120" height="60" as="geometry" />
        </mxCell>
        <mxCell id="xtwvShjo_e-eyDxikrhk-3" value="Penulis" style="rounded=1;whiteSpace=wrap;html=1;" vertex="1" parent="1">
          <mxGeometry x="40" y="150" width="120" height="60" as="geometry" />
        </mxCell>
        <mxCell id="xtwvShjo_e-eyDxikrhk-6" style="edgeStyle=orthogonalEdgeStyle;rounded=0;orthogonalLoop=1;jettySize=auto;html=1;curved=0;" edge="1" parent="1" source="xtwvShjo_e-eyDxikrhk-4">
          <mxGeometry relative="1" as="geometry">
            <mxPoint x="310" y="260" as="targetPoint" />
          </mxGeometry>
        </mxCell>
        <mxCell id="xtwvShjo_e-eyDxikrhk-7" value="Menambahkan buku ke sistem" style="edgeLabel;html=1;align=center;verticalAlign=middle;resizable=0;points=[];" vertex="1" connectable="0" parent="xtwvShjo_e-eyDxikrhk-6">
          <mxGeometry x="0.0118" y="-1" relative="1" as="geometry">
            <mxPoint as="offset" />
          </mxGeometry>
        </mxCell>
        <mxCell id="xtwvShjo_e-eyDxikrhk-4" value="" style="html=1;points=[[0,0,0,0,5],[0,1,0,0,-5],[1,0,0,0,5],[1,1,0,0,-5]];perimeter=orthogonalPerimeter;outlineConnect=0;targetShapes=umlLifeline;portConstraint=eastwest;newEdgeStyle={&quot;curved&quot;:0,&quot;rounded&quot;:0};" vertex="1" parent="1">
          <mxGeometry x="95" y="220" width="10" height="80" as="geometry" />
        </mxCell>
        <mxCell id="xtwvShjo_e-eyDxikrhk-8" style="edgeStyle=orthogonalEdgeStyle;rounded=0;orthogonalLoop=1;jettySize=auto;html=1;curved=0;" edge="1" parent="1">
          <mxGeometry relative="1" as="geometry">
            <mxPoint x="110" y="280" as="targetPoint" />
            <mxPoint x="310" y="280" as="sourcePoint" />
          </mxGeometry>
        </mxCell>
        <mxCell id="xtwvShjo_e-eyDxikrhk-9" value="Mengkonfirmasi buku&amp;nbsp;&lt;div&gt;telah ditambahkan&lt;/div&gt;" style="edgeLabel;html=1;align=center;verticalAlign=middle;resizable=0;points=[];" vertex="1" connectable="0" parent="xtwvShjo_e-eyDxikrhk-8">
          <mxGeometry relative="1" as="geometry">
            <mxPoint as="offset" />
          </mxGeometry>
        </mxCell>
        <mxCell id="xtwvShjo_e-eyDxikrhk-15" style="edgeStyle=orthogonalEdgeStyle;rounded=0;orthogonalLoop=1;jettySize=auto;html=1;curved=0;" edge="1" parent="1">
          <mxGeometry relative="1" as="geometry">
            <mxPoint x="510" y="320" as="targetPoint" />
            <mxPoint x="330" y="320" as="sourcePoint" />
          </mxGeometry>
        </mxCell>
        <mxCell id="xtwvShjo_e-eyDxikrhk-16" value="mengkonfirmasi pemesanan" style="edgeLabel;html=1;align=center;verticalAlign=middle;resizable=0;points=[];" vertex="1" connectable="0" parent="xtwvShjo_e-eyDxikrhk-15">
          <mxGeometry x="0.0111" y="1" relative="1" as="geometry">
            <mxPoint as="offset" />
          </mxGeometry>
        </mxCell>
        <mxCell id="xtwvShjo_e-eyDxikrhk-21" style="edgeStyle=orthogonalEdgeStyle;rounded=0;orthogonalLoop=1;jettySize=auto;html=1;curved=0;" edge="1" parent="1">
          <mxGeometry relative="1" as="geometry">
            <mxPoint x="690" y="400" as="targetPoint" />
            <mxPoint x="330" y="400" as="sourcePoint" />
          </mxGeometry>
        </mxCell>
        <mxCell id="xtwvShjo_e-eyDxikrhk-22" value="Membuatkan Laporan&lt;div&gt;Keuangan&lt;/div&gt;" style="edgeLabel;html=1;align=center;verticalAlign=middle;resizable=0;points=[];" vertex="1" connectable="0" parent="xtwvShjo_e-eyDxikrhk-21">
          <mxGeometry x="-0.5056" y="-1" relative="1" as="geometry">
            <mxPoint as="offset" />
          </mxGeometry>
        </mxCell>
        <mxCell id="xtwvShjo_e-eyDxikrhk-30" style="edgeStyle=orthogonalEdgeStyle;rounded=0;orthogonalLoop=1;jettySize=auto;html=1;curved=0;entryX=1;entryY=0.5;entryDx=0;entryDy=0;" edge="1" parent="1" target="xtwvShjo_e-eyDxikrhk-23">
          <mxGeometry relative="1" as="geometry">
            <mxPoint x="310" y="400" as="sourcePoint" />
          </mxGeometry>
        </mxCell>
        <mxCell id="xtwvShjo_e-eyDxikrhk-31" value="memberikan data pesanan" style="edgeLabel;html=1;align=center;verticalAlign=middle;resizable=0;points=[];" vertex="1" connectable="0" parent="xtwvShjo_e-eyDxikrhk-30">
          <mxGeometry x="-0.0033" relative="1" as="geometry">
            <mxPoint as="offset" />
          </mxGeometry>
        </mxCell>
        <mxCell id="xtwvShjo_e-eyDxikrhk-38" style="edgeStyle=orthogonalEdgeStyle;rounded=0;orthogonalLoop=1;jettySize=auto;html=1;curved=0;entryX=0;entryY=1;entryDx=0;entryDy=0;" edge="1" parent="1" target="xtwvShjo_e-eyDxikrhk-35">
          <mxGeometry relative="1" as="geometry">
            <mxPoint x="330" y="560" as="sourcePoint" />
            <Array as="points">
              <mxPoint x="330" y="561" />
              <mxPoint x="360" y="561" />
              <mxPoint x="360" y="580" />
              <mxPoint x="550" y="580" />
            </Array>
          </mxGeometry>
        </mxCell>
        <mxCell id="xtwvShjo_e-eyDxikrhk-39" value="konfirmasi stok" style="edgeLabel;html=1;align=center;verticalAlign=middle;resizable=0;points=[];" vertex="1" connectable="0" parent="xtwvShjo_e-eyDxikrhk-38">
          <mxGeometry x="0.1128" relative="1" as="geometry">
            <mxPoint as="offset" />
          </mxGeometry>
        </mxCell>
        <mxCell id="xtwvShjo_e-eyDxikrhk-5" value="" style="html=1;points=[[0,0,0,0,5],[0,1,0,0,-5],[1,0,0,0,5],[1,1,0,0,-5]];perimeter=orthogonalPerimeter;outlineConnect=0;targetShapes=umlLifeline;portConstraint=eastwest;newEdgeStyle={&quot;curved&quot;:0,&quot;rounded&quot;:0};" vertex="1" parent="1">
          <mxGeometry x="315" y="220" width="10" height="440" as="geometry" />
        </mxCell>
        <mxCell id="xtwvShjo_e-eyDxikrhk-11" style="edgeStyle=orthogonalEdgeStyle;rounded=0;orthogonalLoop=1;jettySize=auto;html=1;curved=0;" edge="1" parent="1">
          <mxGeometry relative="1" as="geometry">
            <mxPoint x="330" y="260" as="targetPoint" />
            <mxPoint x="510" y="260" as="sourcePoint" />
          </mxGeometry>
        </mxCell>
        <mxCell id="xtwvShjo_e-eyDxikrhk-12" value="meminta daftar buku&lt;div&gt;yang tersedia&lt;/div&gt;" style="edgeLabel;html=1;align=center;verticalAlign=middle;resizable=0;points=[];" vertex="1" connectable="0" parent="xtwvShjo_e-eyDxikrhk-11">
          <mxGeometry x="-0.0111" y="-1" relative="1" as="geometry">
            <mxPoint as="offset" />
          </mxGeometry>
        </mxCell>
        <mxCell id="xtwvShjo_e-eyDxikrhk-13" style="edgeStyle=orthogonalEdgeStyle;rounded=0;orthogonalLoop=1;jettySize=auto;html=1;curved=0;" edge="1" parent="1">
          <mxGeometry relative="1" as="geometry">
            <mxPoint x="330" y="290" as="targetPoint" />
            <mxPoint x="510" y="290" as="sourcePoint" />
          </mxGeometry>
        </mxCell>
        <mxCell id="xtwvShjo_e-eyDxikrhk-14" value="Melakukan Pemesanan" style="edgeLabel;html=1;align=center;verticalAlign=middle;resizable=0;points=[];" vertex="1" connectable="0" parent="xtwvShjo_e-eyDxikrhk-13">
          <mxGeometry x="-0.0222" y="-3" relative="1" as="geometry">
            <mxPoint as="offset" />
          </mxGeometry>
        </mxCell>
        <mxCell id="xtwvShjo_e-eyDxikrhk-10" value="" style="html=1;points=[[0,0,0,0,5],[0,1,0,0,-5],[1,0,0,0,5],[1,1,0,0,-5]];perimeter=orthogonalPerimeter;outlineConnect=0;targetShapes=umlLifeline;portConstraint=eastwest;newEdgeStyle={&quot;curved&quot;:0,&quot;rounded&quot;:0};" vertex="1" parent="1">
          <mxGeometry x="515" y="220" width="10" height="190" as="geometry" />
        </mxCell>
        <mxCell id="xtwvShjo_e-eyDxikrhk-17" value="Sales Manajer" style="rounded=1;whiteSpace=wrap;html=1;" vertex="1" parent="1">
          <mxGeometry x="640" y="150" width="120" height="60" as="geometry" />
        </mxCell>
        <mxCell id="xtwvShjo_e-eyDxikrhk-19" style="edgeStyle=orthogonalEdgeStyle;rounded=0;orthogonalLoop=1;jettySize=auto;html=1;curved=0;" edge="1" parent="1">
          <mxGeometry relative="1" as="geometry">
            <mxPoint x="330" y="360" as="targetPoint" />
            <mxPoint x="690" y="360" as="sourcePoint" />
          </mxGeometry>
        </mxCell>
        <mxCell id="xtwvShjo_e-eyDxikrhk-20" value="Mengirim permintaan&lt;div&gt;pembuatan lap. keuangan&lt;/div&gt;" style="edgeLabel;html=1;align=center;verticalAlign=middle;resizable=0;points=[];" vertex="1" connectable="0" parent="xtwvShjo_e-eyDxikrhk-19">
          <mxGeometry x="-0.5444" y="3" relative="1" as="geometry">
            <mxPoint as="offset" />
          </mxGeometry>
        </mxCell>
        <mxCell id="xtwvShjo_e-eyDxikrhk-18" value="" style="html=1;points=[[0,0,0,0,5],[0,1,0,0,-5],[1,0,0,0,5],[1,1,0,0,-5]];perimeter=orthogonalPerimeter;outlineConnect=0;targetShapes=umlLifeline;portConstraint=eastwest;newEdgeStyle={&quot;curved&quot;:0,&quot;rounded&quot;:0};" vertex="1" parent="1">
          <mxGeometry x="695" y="220" width="10" height="200" as="geometry" />
        </mxCell>
        <mxCell id="xtwvShjo_e-eyDxikrhk-28" style="edgeStyle=orthogonalEdgeStyle;rounded=0;orthogonalLoop=1;jettySize=auto;html=1;exitX=0.5;exitY=1;exitDx=0;exitDy=0;" edge="1" parent="1" source="xtwvShjo_e-eyDxikrhk-23" target="xtwvShjo_e-eyDxikrhk-5">
          <mxGeometry relative="1" as="geometry" />
        </mxCell>
        <mxCell id="xtwvShjo_e-eyDxikrhk-29" value="konfirmasi pesanan&lt;div&gt;telah diproses&lt;/div&gt;" style="edgeLabel;html=1;align=center;verticalAlign=middle;resizable=0;points=[];" vertex="1" connectable="0" parent="xtwvShjo_e-eyDxikrhk-28">
          <mxGeometry x="0.1765" y="1" relative="1" as="geometry">
            <mxPoint as="offset" />
          </mxGeometry>
        </mxCell>
        <mxCell id="xtwvShjo_e-eyDxikrhk-33" style="edgeStyle=orthogonalEdgeStyle;rounded=0;orthogonalLoop=1;jettySize=auto;html=1;exitX=0.5;exitY=0;exitDx=0;exitDy=0;entryX=0.5;entryY=0.28;entryDx=0;entryDy=0;entryPerimeter=0;" edge="1" parent="1" source="xtwvShjo_e-eyDxikrhk-23" target="xtwvShjo_e-eyDxikrhk-5">
          <mxGeometry relative="1" as="geometry" />
        </mxCell>
        <mxCell id="xtwvShjo_e-eyDxikrhk-34" value="memproses pesanan" style="edgeLabel;html=1;align=center;verticalAlign=middle;resizable=0;points=[];" vertex="1" connectable="0" parent="xtwvShjo_e-eyDxikrhk-33">
          <mxGeometry x="-0.296" y="1" relative="1" as="geometry">
            <mxPoint as="offset" />
          </mxGeometry>
        </mxCell>
        <mxCell id="xtwvShjo_e-eyDxikrhk-23" value="Tim Seller" style="rounded=1;whiteSpace=wrap;html=1;" vertex="1" parent="1">
          <mxGeometry x="40" y="370" width="120" height="60" as="geometry" />
        </mxCell>
        <mxCell id="xtwvShjo_e-eyDxikrhk-36" style="edgeStyle=orthogonalEdgeStyle;rounded=0;orthogonalLoop=1;jettySize=auto;html=1;" edge="1" parent="1" source="xtwvShjo_e-eyDxikrhk-35" target="xtwvShjo_e-eyDxikrhk-5">
          <mxGeometry relative="1" as="geometry">
            <Array as="points">
              <mxPoint x="380" y="530" />
              <mxPoint x="380" y="440" />
            </Array>
          </mxGeometry>
        </mxCell>
        <mxCell id="xtwvShjo_e-eyDxikrhk-37" value="Memberikan data stok" style="edgeLabel;html=1;align=center;verticalAlign=middle;resizable=0;points=[];" vertex="1" connectable="0" parent="xtwvShjo_e-eyDxikrhk-36">
          <mxGeometry x="-0.4582" y="1" relative="1" as="geometry">
            <mxPoint as="offset" />
          </mxGeometry>
        </mxCell>
        <mxCell id="xtwvShjo_e-eyDxikrhk-35" value="Gudang" style="rounded=1;whiteSpace=wrap;html=1;" vertex="1" parent="1">
          <mxGeometry x="550" y="500" width="120" height="60" as="geometry" />
        </mxCell>
      </root>
    </mxGraphModel>
  </diagram>
</mxfile>
